#!OML:ASF X:\für Bonn\!DataBase\2005_08_12_Daniel\c3d\Daniel.ASF
:FULLY-SPECIFIED
:DEGREES
61
root 3.17131 17.3225 -20.549 171.01 181.712 -181.76
lowerback 30.2203 1.20329 1.3133
upperback 11.8488 1.6827 -2.78165
thorax -3.07047 0.941415 -4.36754
lowerneck 6.94933 0.588102 -4.36544
upperneck 17.143 0.79343 -0.721109
head 4.45677 0.106193 0.528211
rclavicle -1.59028e-015 1.82882e-014
rhumerus -1.80288 -27.0784 -89.1967
rradius 11.9625
rwrist 39.431
rhand -20.5531 16.9833
rfingers 7.12502
rthumb 5.80585 -12.9171
lclavicle -1.59028e-015 1.82882e-014
lhumerus -24.8979 10.4419 85.7497
lradius 40.8341
lwrist -8.3549
lhand -13.3236 -5.46911
lfingers 7.12502
lthumb 12.7812 24.1197
rfemur -10.2358 -6.49858 14.759
rtibia 57.5214
rfoot -11.335 9.78654
rtoes -14.8487
lfemur -20.074 -5.58945 -18.6432
ltibia 37.6248
lfoot -8.05174 4.18402
ltoes -5.23528
62
root 3.18166 17.3348 -20.5162 171.267 181.523 -181.987
lowerback 30.7692 1.09673 1.71705
upperback 12.0497 1.66383 -2.74826
thorax -3.07529 0.947344 -4.5745
lowerneck 7.11252 0.483932 -4.37844
upperneck 16.7203 0.638811 -0.729236
head 4.27164 0.0393197 0.52342
rclavicle 2.34566e-014 7.15625e-015
rhumerus -0.921669 -27.3069 -89.551
rradius 11.8455
rwrist 39.4887
rhand -20.4714 16.9317
rfingers 7.12502
rthumb 5.8847 -12.9666
lclavicle 2.34566e-014 7.15625e-015
lhumerus -24.7082 9.11247 86.1399
lradius 42.2354
lwrist -7.17678
lhand -13.6356 -5.58652
lfingers 7.12502
lthumb 12.4805 24.0208
rfemur -11.3305 -6.41921 15.1118
rtibia 56.6754
rfoot -11.7154 9.78364
rtoes -14.4334
lfemur -20.3203 -5.58108 -18.4701
ltibia 37.7201
lfoot -8.12921 3.9951
ltoes -5.36066
63
root 3.19016 17.3456 -20.4823 171.489 181.275 -182.222
lowerback 31.3074 0.975971 2.1098
upperback 12.2798 1.63148 -2.68237
thorax -3.04177 0.947537 -4.73324
lowerneck 7.30064 0.375783 -4.39912
upperneck 16.2464 0.478236 -0.753748
head 4.06515 -0.0304906 0.514713
rclavicle 7.95139e-016 2.78299e-014
rhumerus -0.0193243 -27.3629 -89.8738
rradius 11.7568
rwrist 39.3928
rhand -20.3585 16.8259
rfingers 7.12502
rthumb 5.99374 -13.0694
lclavicle 7.95139e-016 2.78299e-014
lhumerus -24.5395 7.8987 86.5339
lradius 43.6747
lwrist -6.08887
lhand -13.8705 -5.80164
lfingers 7.12502
lthumb 12.254 23.8194
rfemur -12.2985 -6.3284 15.4429
rtibia 55.6798
rfoot -12.0858 9.67426
rtoes -13.6965
lfemur -20.5233 -5.6638 -18.2891
ltibia 37.8086
lfoot -8.19797 3.81541
ltoes -5.38216
64
root 3.19727 17.3559 -20.4481 171.699 180.987 -182.434
lowerback 31.8517 0.839239 2.49284
upperback 12.5033 1.5808 -2.62037
thorax -3.01727 0.939217 -4.88487
lowerneck 7.46686 0.282765 -4.48831
upperneck 15.8071 0.326742 -0.686102
head 3.87763 -0.0974116 0.549439
rclavicle -3.97569e-015 -6.36111e-015
rhumerus 0.830842 -27.327 -90.1696
rradius 11.6908
rwrist 39.2514
rhand -20.333 16.6585
rfingers 7.12502
rthumb 6.01834 -13.2361
lclavicle -3.97569e-015 -6.36111e-015
lhumerus -24.3998 6.75204 86.8819
lradius 45.0982
lwrist -5.11114
lhand -14.0694 -6.11654
lfingers 7.12502
lthumb 12.0622 23.5158
rfemur -13.15 -6.22665 15.7301
rtibia 54.5297
rfoot -12.4293 9.43818
rtoes -13.1077
lfemur -20.7211 -5.70245 -18.1436
ltibia 37.8862
lfoot -8.25783 3.57321
ltoes -5.57531
65
root 3.20256 17.3669 -20.4131 171.897 180.67 -182.608
lowerback 32.7411 0.698545 2.84664
upperback 12.4579 1.55003 -2.75442
thorax -3.04099 0.95029 -4.8753
lowerneck 7.56547 0.161566 -4.47397
upperneck 15.3999 0.151629 -0.661026
head 3.71575 -0.172524 0.552527
rclavicle -1.98785e-014 7.95139e-016
rhumerus 1.70369 -27.1336 -90.4426
rradius 11.6017
rwrist 38.8959
rhand -20.4199 16.5223
rfingers 7.12502
rthumb 5.93442 -13.3746
lclavicle -1.98785e-014 7.95139e-016
lhumerus -24.2373 5.64907 87.1992
lradius 46.517
lwrist -4.17533
lhand -14.3045 -6.48413
lfingers 7.12502
lthumb 11.8355 23.1614
rfemur -13.9243 -6.03804 15.9599
rtibia 53.2411
rfoot -12.5984 9.05276
rtoes -12.3433
lfemur -20.8929 -5.77648 -18.0384
ltibia 37.9342
lfoot -8.29476 3.35542
ltoes -5.53419
66
root 3.20623 17.3788 -20.3784 172.057 180.311 -182.753
lowerback 33.3128 0.560438 3.16749
upperback 12.6918 1.49379 -2.69483
thorax -2.99609 0.939971 -4.97036
lowerneck 7.67191 0.0471027 -4.49841
upperneck 14.9887 -0.0149233 -0.647926
head 3.55265 -0.24597 0.558773
rclavicle 3.37934e-014 -2.78299e-014
rhumerus 2.52819 -26.9066 -90.6403
rradius 11.5537
rwrist 38.6114
rhand -20.4294 16.3565
rfingers 7.12502
rthumb 5.92524 -13.5407
lclavicle 3.37934e-014 -2.78299e-014
lhumerus -24.1067 4.63479 87.505
lradius 47.934
lwrist -3.33755
lhand -14.4244 -6.91827
lfingers 7.12502
lthumb 11.7198 22.7339
rfemur -14.6218 -5.86537 16.1276
rtibia 51.8374
rfoot -12.6683 8.54309
rtoes -11.8866
lfemur -21.0032 -5.87751 -17.9633
ltibia 37.9419
lfoot -8.33463 3.10445
ltoes -5.64046
67
root 3.20936 17.3918 -20.3437 172.239 179.95 -182.892
lowerback 33.865 0.43384 3.47072
upperback 12.9219 1.45214 -2.60491
thorax -2.94375 0.935874 -5.0272
lowerneck 7.71038 -0.083422 -4.54291
upperneck 14.6318 -0.196416 -0.653371
head 3.42288 -0.329453 0.562893
rclavicle 3.61788e-014 -1.27222e-014
rhumerus 3.32728 -26.4701 -90.7316
rradius 11.5193
rwrist 38.0899
rhand -20.4762 16.2298
rfingers 7.12502
rthumb 5.88006 -13.6686
lclavicle 3.61788e-014 -1.27222e-014
lhumerus -24.0026 3.76364 87.8452
lradius 49.4032
lwrist -2.68056
lhand -14.4879 -7.34869
lfingers 7.12502
lthumb 11.6586 22.3069
rfemur -15.2837 -5.60927 16.2804
rtibia 50.3249
rfoot -12.7176 7.92155
rtoes -11.3251
lfemur -21.1308 -5.91595 -17.8946
ltibia 37.9173
lfoot -8.34377 2.81821
ltoes -5.67447
68
root 3.21025 17.4045 -20.3103 172.404 179.55 -183.017
lowerback 34.4468 0.307045 3.75028
upperback 13.1385 1.41034 -2.48101
thorax -2.91343 0.929554 -5.03497
lowerneck 7.759 -0.202396 -4.68117
upperneck 14.2731 -0.373034 -0.600846
head 3.29277 -0.413452 0.602459
rclavicle 4.25399e-014 -3.65764e-014
rhumerus 4.06532 -25.843 -90.706
rradius 11.5147
rwrist 37.4481
rhand -20.5311 16.0142
rfingers 7.12502
rthumb 5.82706 -13.8857
lclavicle 4.25399e-014 -3.65764e-014
lhumerus -23.9464 2.91707 88.2034
lradius 50.8822
lwrist -2.02258
lhand -14.5455 -7.77734
lfingers 7.12502
lthumb 11.6031 21.8814
rfemur -15.8642 -5.30953 16.3851
rtibia 48.7367
rfoot -12.7442 7.22799
rtoes -10.9473
lfemur -21.2303 -5.99151 -17.8405
ltibia 37.8621
lfoot -8.31781 2.54196
ltoes -5.72195
69
root 3.2107 17.4178 -20.2775 172.581 179.149 -183.12
lowerback 35.0064 0.186341 4.02572
upperback 13.3706 1.37742 -2.36837
thorax -2.85351 0.929594 -5.05358
lowerneck 7.65953 -0.353708 -4.70644
upperneck 14.0001 -0.56827 -0.638223
head 3.21886 -0.505345 0.593494
rclavicle -2.14687e-014 1.90833e-014
rhumerus 4.85584 -25.3872 -90.7011
rradius 11.4879
rwrist 36.8947
rhand -20.5913 15.8712
rfingers 7.12502
rthumb 5.76893 -14.0303
lclavicle -2.14687e-014 1.90833e-014
lhumerus -23.8487 2.13437 88.5428
lradius 52.3641
lwrist -1.45677
lhand -14.5584 -8.0872
lfingers 7.12502
lthumb 11.5907 21.5723
rfemur -16.3893 -4.92463 16.4394
rtibia 47.0795
rfoot -12.7268 6.48494
rtoes -10.8768
lfemur -21.3537 -6.06151 -17.8051
ltibia 37.8127
lfoot -8.30713 2.25266
ltoes -5.75058
70
root 3.21023 17.4276 -20.2466 172.724 178.746 -183.171
lowerback 35.6398 0.0790356 4.23689
upperback 13.574 1.34794 -2.24047
thorax -2.84755 0.926793 -5.02329
lowerneck 7.61111 -0.489302 -4.82484
upperneck 13.7049 -0.75664 -0.608863
head 3.12998 -0.595994 0.622442
rclavicle -1.47101e-014 -2.38542e-015
rhumerus 5.62171 -25.2264 -90.6917
rradius 11.4354
rwrist 36.6902
rhand -20.6489 15.774
rfingers 7.12502
rthumb 5.71335 -14.129
lclavicle -1.47101e-014 -2.38542e-015
lhumerus -23.8186 1.45458 88.8935
lradius 53.8422
lwrist -0.972815
lhand -14.5408 -8.37831
lfingers 7.12502
lthumb 11.6076 21.2802
rfemur -16.8121 -4.49496 16.4057
rtibia 45.3895
rfoot -12.632 5.73943
rtoes -11.0299
lfemur -21.4433 -6.14921 -17.827
ltibia 37.7725
lfoot -8.30488 1.97309
ltoes -5.84433
71
root 3.20837 17.4349 -20.2166 172.88 178.35 -183.187
lowerback 36.2713 -0.0215156 4.42565
upperback 13.7596 1.32184 -2.13053
thorax -2.85562 0.925035 -5.0005
lowerneck 7.6152 -0.64004 -4.91279
upperneck 13.4255 -0.961994 -0.620503
head 3.03795 -0.694514 0.632923
rclavicle -9.14409e-015 -2.38542e-014
rhumerus 6.37026 -25.0446 -90.6814
rradius 11.3868
rwrist 36.4224
rhand -20.6749 15.5868
rfingers 7.12502
rthumb 5.68819 -14.3169
lclavicle -9.14409e-015 -2.38542e-014
lhumerus -23.7975 0.859958 89.2134
lradius 55.2769
lwrist -0.556274
lhand -14.495 -8.67334
lfingers 7.12502
lthumb 11.6517 20.9827
rfemur -17.1709 -3.98095 16.3021
rtibia 43.6816
rfoot -12.4466 4.96908
rtoes -11.2117
lfemur -21.5776 -6.17651 -17.8781
ltibia 37.7679
lfoot -8.32381 1.67332
ltoes -5.90553
72
root 3.2058 17.4383 -20.1876 173.051 177.957 -183.126
lowerback 36.8821 -0.108595 4.56004
upperback 13.9557 1.29467 -2.05082
thorax -2.84244 0.923222 -4.97943
lowerneck 7.80568 -0.775848 -4.99033
upperneck 12.9748 -1.16543 -0.5924
head 2.85512 -0.786978 0.655227
rclavicle 9.14409e-015 1.86858e-014
rhumerus 7.14765 -25.0352 -90.7138
rradius 11.3404
rwrist 36.3588
rhand -20.6436 15.4954
rfingers 7.12502
rthumb 5.71849 -14.4075
lclavicle 9.14409e-015 1.86858e-014
lhumerus -23.7588 0.342273 89.5026
lradius 56.6858
lwrist -0.265072
lhand -14.4341 -8.85948
lfingers 7.12502
lthumb 11.7105 20.7932
rfemur -17.4659 -3.43207 16.0886
rtibia 41.9854
rfoot -12.1375 4.16118
rtoes -11.1206
lfemur -21.7531 -6.23144 -18.0077
ltibia 37.8024
lfoot -8.33529 1.38547
ltoes -6.00758
73
root 3.20155 17.4385 -20.1601 173.224 177.567 -183.069
lowerback 37.6209 -0.206148 4.69106
upperback 14.0368 1.26495 -1.96904
thorax -2.85233 0.91854 -4.9463
lowerneck 7.94515 -0.918506 -5.06257
upperneck 12.6055 -1.37018 -0.595496
head 2.71052 -0.882123 0.666937
rclavicle -2.56432e-014 4.37326e-015
rhumerus 7.99218 -25.2308 -90.8072
rradius 11.2361
rwrist 36.4933
rhand -20.5907 15.4532
rfingers 7.12502
rthumb 5.76948 -14.4483
lclavicle -2.56432e-014 4.37326e-015
lhumerus -23.6908 -0.129307 89.7787
lradius 58.0276
lwrist 0.074309
lhand -14.3154 -8.97436
lfingers 7.12502
lthumb 11.8249 20.6718
rfemur -17.6937 -2.78103 15.8539
rtibia 40.3236
rfoot -11.7593 3.3212
rtoes -10.5102
lfemur -21.9493 -6.30244 -18.1228
ltibia 37.8672
lfoot -8.3812 1.13551
ltoes -6.12627
